{"title":"Mission Impossible 5- Rogue Nation 2015 HDTS XVID AC3 HQ Hive-CM","uid":12205214,"size":1781459871,"categoryP":"video","categoryS":"movies","magnet":"?xt=urn:btih:2892d0bea0f634a4d506bd0fe5ea7d4fbdd4b2d3&amp;dn=Mission+Impossible+5-+Rogue+Nation+2015+HDTS+XVID+AC3+HQ+Hive-CM&amp;tr=udp%3A%2F%2Ftracker.openbittorrent.com%3A80&amp;tr=udp%3A%2F%2Fopen.demonii.com%3A1337&amp;tr=udp%3A%2F%2Ftracker.coppersurfer.tk%3A6969&amp;tr=udp%3A%2F%2Fexodus.desync.com%3A6969","seeders":8,"leechers":0,"uploader":"makintos13","files":4,"time":1438929241,"description":" &lt;a href=&quot;http://imgmak.com/hX&quot; rel=&quot;nofollow&quot; target=&quot;_NEW&quot;&gt;http://imgmak.com/hX&lt;/a&gt;\n &lt;a href=&quot;\nhttp://imgmak.com/lC&quot; rel=&quot;nofollow&quot; target=&quot;_NEW&quot;&gt;\nhttp://imgmak.com/lC&lt;/a&gt;\n &lt;a href=&quot;\nhttp://imgmak.com/lK&quot; rel=&quot;nofollow&quot; target=&quot;_NEW&quot;&gt;\nhttp://imgmak.com/lK&lt;/a&gt;\n &lt;a href=&quot;\nhttp://imgmak.com/lT&quot; rel=&quot;nofollow&quot; target=&quot;_NEW&quot;&gt;\nhttp://imgmak.com/lT&lt;/a&gt;\n &lt;a href=&quot;\nhttp://imgmak.com/la&quot; rel=&quot;nofollow&quot; target=&quot;_NEW&quot;&gt;\nhttp://imgmak.com/la&lt;/a&gt;\n\n:::::::\n\nThx Hive\n\nCM8 Doing It Right The First Time\n\nSources:\n\nVideo: V2 HDCAM from Mustang thx m8\nAudio: Sweet Line Big Thx to S4NDM4N\n\nNotes:\n\nHere ya go as promised, the v2 cam has the famous missing plane scene upfront included, so video is complete now from 0 to credits\nso now you will have to whinge about something else\nHuey, Dewey, and Louie GTFO my uploads\nAlso had cpl english subs for some foreign sentences already hardcoded.\nFramerate on this one is perfectly fluid, slightly aimed lower than the v1, but great to watch.\n\nEncode:\n\ntried 3 different versions of it, this one is best. its quite enjoyable now.\nIn the first 2 versions i tried rotating it a bit to get all straight but lost so many lines from top and bottom, that i would cut into heads and into the sublines,\nso left it as it was, this will do just fine.\nfixed perspective,brightness and colours, and added sharpness.\n\nAudio from S4NDM4N was perfect, lipsynced to video\n\ngot very nice enjoy\n\nVideo: 1280x532 @bitrate 3000-8000\nAudio: English Line AC3 2.0 Stereo\nSample: yes included\n\n &lt;a href=&quot;\nhttp://www.imdb.com/title/tt2381249/&quot; rel=&quot;nofollow&quot; target=&quot;_NEW&quot;&gt;\nhttp://www.imdb.com/title/tt2381249/&lt;/a&gt;\n\n\nGeneral\nComplete name : Mission.Impossible.5-Rogue.Nation.2015.FULL.720P.HDTS.x264.AC3.HQ.Hive-CM8.mkv\nFormat : Matroska\nFormat version : Version 2\nFile size : 2.83 GiB\nDuration : 2h 4mn\nOverall bit rate mode : Variable\nOverall bit rate : 3 257 Kbps\nEncoded date : UTC 2015-08-06 23:30:56\nWriting application : mkvmerge v5.6.0 ('Kenya Kane') built on May 27 2012 16:44:04\nWriting library : libebml v1.2.3 + libmatroska v1.3.0\n\nVideo\nID : 1\nFormat : AVC\nFormat/Info : Advanced Video Codec\nFormat profile : &lt;a class=&quot;__cf_email__&quot; href=&quot;/cdn-cgi/l/email-protection&quot; data-cfemail=&quot;dc94b5bbb49c90eff2ed&quot;&gt;[email&amp;#160;protected]&lt;/a&gt;&lt;script data-cfhash='f9e31' type=&quot;text/javascript&quot;&gt;\n/* &lt;![CDATA[ */!function(){try{var t=&quot;currentScript&quot;in document?document.currentScript:function(){for(var t=document.getElementsByTagName(&quot;script&quot;),e=t.length;e--;)if(t[e].getAttribute(&quot;data-cfhash&quot;))return t[e]}();if(t&amp;&amp;t.previousSibling){var e,r,n,i,c=t.previousSibling,a=c.getAttribute(&quot;data-cfemail&quot;);if(a){for(e=&quot;&quot;,r=parseInt(a.substr(0,2),16),n=2;a.length-n;n+=2)i=parseInt(a.substr(n,2),16)^r,e+=String.fromCharCode(i);e=document.createTextNode(e),c.parentNode.replaceChild(e,c)}t.parentNode.removeChild(t);}}catch(u){}}()/* ]]&gt; */&lt;/script&gt;\nFormat settings, CABAC : Yes\nFormat settings, ReFrames : 2 frames\nFormat settings, GOP : M=4, N=33\nMuxing mode : Header stripping\nCodec ID : V_MPEG4/ISO/AVC\nDuration : 2h 4mn\nBit rate mode : Variable\nBit rate : 2 936 Kbps\nMaximum bit rate : 8 000 Kbps\nWidth : 1 280 pixels\nHeight : 532 pixels\nDisplay aspect ratio : 2.40:1\nFrame rate : 25.000 fps\nStandard : PAL\nColor space : YUV\nChroma subsampling : 4:2:0\nBit depth : 8 bits\nScan type : Progressive\nBits/(Pixel*Frame) : 0.172\nStream size : 2.56 GiB (90%)\nLanguage : English\nDefault : Yes\nForced : No\nColor primaries : BT.709-5, BT.1361, IEC 61966-2-4, SMPTE RP177\nTransfer characteristics : BT.709-5, BT.1361\nMatrix coefficients : BT.709-5, BT.1361, IEC 61966-2-4 709, SMPTE RP177\n\nAudio\nID : 2\nFormat : AC-3\nFormat/Info : Audio Coding 3\nMode extension : CM (complete main)\nFormat settings, Endianness : Big\nMuxing mode : Header stripping\nCodec ID : A_AC3\nDuration : 2h 4mn\nBit rate mode : Constant\nBit rate : 256 Kbps\nChannel(s) : 2 channels\nChannel positions : Front: L R\nSampling rate : 48.0 KHz\nBit depth : 16 bits\nCompression mode : Lossy\nStream size : 228 MiB (8%)","torrent":{"xt":"urn:btih:2892d0bea0f634a4d506bd0fe5ea7d4fbdd4b2d3","amp;dn":"Mission+Impossible+5-+Rogue+Nation+2015+HDTS+XVID+AC3+HQ+Hive-CM","amp;tr":["udp%3A%2F%2Ftracker.openbittorrent.com%3A80","udp%3A%2F%2Fopen.demonii.com%3A1337","udp%3A%2F%2Ftracker.coppersurfer.tk%3A6969","udp%3A%2F%2Fexodus.desync.com%3A6969"],"infoHash":"2892d0bea0f634a4d506bd0fe5ea7d4fbdd4b2d3","infoHashBuffer":{"type":"Buffer","data":[40,146,208,190,160,246,52,164,213,6,189,15,229,234,125,79,189,212,178,211]},"announce":[],"urlList":[]}}